<svg width="705" height="192" viewBox="0 0 705 192" fill="none" xmlns="http://www.w3.org/2000/svg">
<path d="M0 0H705L598.068 192H0V0Z" fill="#070707"/>
<path d="M100.336 68.3906H120.534C124.557 68.3906 128.038 68.9928 130.977 70.1973C133.939 71.4017 136.216 73.1842 137.806 75.5449C139.396 77.9056 140.19 80.8203 140.19 84.2891C140.19 87.1797 139.721 89.6367 138.781 91.6602C137.842 93.6836 136.517 95.3577 134.807 96.6826C133.12 98.0075 131.145 99.0794 128.881 99.8984L125.051 101.994H107.852L107.779 92.8525H120.57C122.329 92.8525 123.786 92.5394 124.942 91.9131C126.099 91.2868 126.966 90.4076 127.544 89.2754C128.146 88.1191 128.447 86.7702 128.447 85.2285C128.447 83.6387 128.146 82.2656 127.544 81.1094C126.942 79.9531 126.05 79.0739 124.87 78.4717C123.714 77.8454 122.269 77.5322 120.534 77.5322H112.115V121H100.336V68.3906ZM129.459 121L117.644 97.6221L130.073 97.5859L142.069 120.458V121H129.459ZM183.947 111.895V121H155.944V111.895H183.947ZM159.955 68.3906V121H148.176V68.3906H159.955ZM180.334 89.5645V98.3809H155.944V89.5645H180.334ZM183.983 68.3906V77.5322H155.944V68.3906H183.983ZM217.009 107.125C217.009 106.234 216.876 105.439 216.611 104.74C216.346 104.018 215.865 103.355 215.166 102.753C214.467 102.151 213.48 101.549 212.203 100.946C210.926 100.32 209.252 99.6816 207.181 99.0312C204.82 98.2604 202.568 97.3932 200.424 96.4297C198.304 95.4421 196.413 94.2979 194.751 92.9971C193.089 91.6963 191.776 90.1787 190.812 88.4443C189.873 86.71 189.403 84.6865 189.403 82.374C189.403 80.1338 189.897 78.1104 190.885 76.3037C191.872 74.4971 193.257 72.9554 195.04 71.6787C196.823 70.3779 198.918 69.3903 201.327 68.7158C203.736 68.0173 206.386 67.668 209.276 67.668C213.131 67.668 216.515 68.3545 219.43 69.7275C222.368 71.0765 224.657 72.9795 226.295 75.4365C227.933 77.8695 228.752 80.6999 228.752 83.9277H217.045C217.045 82.5065 216.744 81.2539 216.142 80.1699C215.563 79.0618 214.672 78.1947 213.468 77.5684C212.287 76.9421 210.806 76.6289 209.023 76.6289C207.289 76.6289 205.832 76.8939 204.651 77.4238C203.495 77.9297 202.616 78.6283 202.014 79.5195C201.436 80.4108 201.146 81.3864 201.146 82.4463C201.146 83.2894 201.363 84.0602 201.797 84.7588C202.255 85.4333 202.905 86.0716 203.748 86.6738C204.615 87.252 205.675 87.806 206.928 88.3359C208.18 88.8659 209.614 89.3717 211.228 89.8535C214.046 90.7448 216.539 91.7324 218.707 92.8164C220.899 93.9004 222.742 95.1289 224.235 96.502C225.729 97.875 226.849 99.4287 227.596 101.163C228.367 102.897 228.752 104.861 228.752 107.053C228.752 109.389 228.294 111.461 227.379 113.268C226.488 115.074 225.187 116.616 223.477 117.893C221.79 119.145 219.767 120.097 217.406 120.747C215.046 121.397 212.408 121.723 209.493 121.723C206.843 121.723 204.23 121.385 201.652 120.711C199.075 120.012 196.738 118.952 194.643 117.531C192.571 116.11 190.909 114.303 189.656 112.111C188.428 109.895 187.813 107.27 187.813 104.234H199.593C199.593 105.824 199.822 107.173 200.279 108.281C200.737 109.365 201.387 110.244 202.23 110.919C203.098 111.593 204.146 112.075 205.374 112.364C206.603 112.653 207.976 112.798 209.493 112.798C211.252 112.798 212.673 112.557 213.757 112.075C214.865 111.569 215.684 110.883 216.214 110.016C216.744 109.148 217.009 108.185 217.009 107.125ZM279.555 93.5391V95.8877C279.555 99.8864 279.001 103.476 277.893 106.655C276.809 109.835 275.255 112.545 273.231 114.785C271.232 117.025 268.847 118.748 266.077 119.952C263.331 121.132 260.284 121.723 256.936 121.723C253.587 121.723 250.528 121.132 247.758 119.952C244.988 118.748 242.579 117.025 240.531 114.785C238.508 112.545 236.942 109.835 235.834 106.655C234.726 103.476 234.172 99.8864 234.172 95.8877V93.5391C234.172 89.5404 234.726 85.9512 235.834 82.7715C236.942 79.5677 238.496 76.8457 240.495 74.6055C242.519 72.3652 244.915 70.6549 247.686 69.4746C250.456 68.2702 253.515 67.668 256.863 67.668C260.212 67.668 263.271 68.2702 266.041 69.4746C268.811 70.6549 271.196 72.3652 273.195 74.6055C275.219 76.8457 276.785 79.5677 277.893 82.7715C279.001 85.9512 279.555 89.5404 279.555 93.5391ZM267.667 95.8877V93.4668C267.667 90.793 267.426 88.4323 266.944 86.3848C266.463 84.3132 265.764 82.5788 264.849 81.1816C263.933 79.7845 262.801 78.7367 261.452 78.0381C260.103 77.3154 258.574 76.9541 256.863 76.9541C255.081 76.9541 253.527 77.3154 252.202 78.0381C250.877 78.7367 249.757 79.7845 248.842 81.1816C247.951 82.5788 247.264 84.3132 246.782 86.3848C246.325 88.4323 246.096 90.793 246.096 93.4668V95.8877C246.096 98.5374 246.325 100.898 246.782 102.97C247.264 105.017 247.963 106.752 248.878 108.173C249.793 109.594 250.913 110.666 252.238 111.389C253.587 112.111 255.153 112.473 256.936 112.473C258.646 112.473 260.163 112.111 261.488 111.389C262.837 110.666 263.969 109.594 264.885 108.173C265.8 106.752 266.487 105.017 266.944 102.97C267.426 100.898 267.667 98.5374 267.667 95.8877ZM315.579 68.3906H327.358V102.934C327.358 107.029 326.491 110.473 324.757 113.268C323.047 116.062 320.662 118.17 317.603 119.591C314.543 121.012 311.002 121.723 306.979 121.723C302.933 121.723 299.368 121.012 296.284 119.591C293.225 118.17 290.816 116.062 289.058 113.268C287.323 110.473 286.456 107.029 286.456 102.934V68.3906H298.271V102.934C298.271 105.198 298.609 107.053 299.283 108.498C299.982 109.919 300.981 110.967 302.282 111.642C303.583 112.292 305.149 112.617 306.979 112.617C308.81 112.617 310.364 112.292 311.641 111.642C312.941 110.967 313.917 109.919 314.567 108.498C315.242 107.053 315.579 105.198 315.579 102.934V68.3906ZM335.777 68.3906H355.976C359.998 68.3906 363.479 68.9928 366.418 70.1973C369.381 71.4017 371.657 73.1842 373.247 75.5449C374.837 77.9056 375.632 80.8203 375.632 84.2891C375.632 87.1797 375.162 89.6367 374.223 91.6602C373.283 93.6836 371.958 95.3577 370.248 96.6826C368.562 98.0075 366.587 99.0794 364.322 99.8984L360.492 101.994H343.293L343.221 92.8525H356.012C357.77 92.8525 359.228 92.5394 360.384 91.9131C361.54 91.2868 362.407 90.4076 362.985 89.2754C363.588 88.1191 363.889 86.7702 363.889 85.2285C363.889 83.6387 363.588 82.2656 362.985 81.1094C362.383 79.9531 361.492 79.0739 360.312 78.4717C359.155 77.8454 357.71 77.5322 355.976 77.5322H347.557V121H335.777V68.3906ZM364.9 121L353.085 97.6221L365.515 97.5859L377.511 120.458V121H364.9ZM413.86 103.367H425.567C425.375 106.98 424.387 110.172 422.604 112.942C420.846 115.688 418.401 117.844 415.27 119.41C412.138 120.952 408.416 121.723 404.104 121.723C400.66 121.723 397.576 121.132 394.854 119.952C392.132 118.772 389.82 117.086 387.917 114.894C386.038 112.677 384.593 110.016 383.581 106.908C382.593 103.777 382.1 100.248 382.1 96.3213V93.1055C382.1 89.179 382.618 85.6501 383.653 82.5186C384.689 79.387 386.171 76.7132 388.098 74.4971C390.025 72.2809 392.337 70.5827 395.035 69.4023C397.733 68.222 400.744 67.6318 404.068 67.6318C408.549 67.6318 412.331 68.4388 415.414 70.0527C418.497 71.6667 420.882 73.8828 422.568 76.7012C424.279 79.5195 425.302 82.7354 425.64 86.3486H413.896C413.8 84.3011 413.415 82.5788 412.74 81.1816C412.066 79.7604 411.03 78.6885 409.633 77.9658C408.236 77.2432 406.381 76.8818 404.068 76.8818C402.382 76.8818 400.901 77.195 399.624 77.8213C398.371 78.4476 397.324 79.4232 396.48 80.748C395.661 82.0729 395.047 83.7591 394.638 85.8066C394.228 87.8301 394.023 90.2389 394.023 93.0332V96.3213C394.023 99.0915 394.204 101.488 394.565 103.512C394.927 105.535 395.505 107.209 396.3 108.534C397.119 109.859 398.167 110.847 399.443 111.497C400.72 112.147 402.274 112.473 404.104 112.473C406.2 112.473 407.947 112.147 409.344 111.497C410.741 110.823 411.813 109.811 412.56 108.462C413.306 107.113 413.74 105.415 413.86 103.367ZM467.879 111.895V121H439.876V111.895H467.879ZM443.887 68.3906V121H432.107V68.3906H443.887ZM464.266 89.5645V98.3809H439.876V89.5645H464.266ZM467.915 68.3906V77.5322H439.876V68.3906H467.915ZM500.94 107.125C500.94 106.234 500.808 105.439 500.543 104.74C500.278 104.018 499.796 103.355 499.098 102.753C498.399 102.151 497.411 101.549 496.135 100.946C494.858 100.32 493.184 99.6816 491.112 99.0312C488.752 98.2604 486.499 97.3932 484.355 96.4297C482.236 95.4421 480.345 94.2979 478.683 92.9971C477.021 91.6963 475.708 90.1787 474.744 88.4443C473.805 86.71 473.335 84.6865 473.335 82.374C473.335 80.1338 473.829 78.1104 474.816 76.3037C475.804 74.4971 477.189 72.9554 478.972 71.6787C480.754 70.3779 482.85 69.3903 485.259 68.7158C487.668 68.0173 490.317 67.668 493.208 67.668C497.062 67.668 500.447 68.3545 503.361 69.7275C506.3 71.0765 508.589 72.9795 510.227 75.4365C511.865 77.8695 512.684 80.6999 512.684 83.9277H500.977C500.977 82.5065 500.675 81.2539 500.073 80.1699C499.495 79.0618 498.604 78.1947 497.399 77.5684C496.219 76.9421 494.738 76.6289 492.955 76.6289C491.221 76.6289 489.763 76.8939 488.583 77.4238C487.427 77.9297 486.548 78.6283 485.945 79.5195C485.367 80.4108 485.078 81.3864 485.078 82.4463C485.078 83.2894 485.295 84.0602 485.729 84.7588C486.186 85.4333 486.837 86.0716 487.68 86.6738C488.547 87.252 489.607 87.806 490.859 88.3359C492.112 88.8659 493.545 89.3717 495.159 89.8535C497.978 90.7448 500.471 91.7324 502.639 92.8164C504.831 93.9004 506.674 95.1289 508.167 96.502C509.66 97.875 510.781 99.4287 511.527 101.163C512.298 102.897 512.684 104.861 512.684 107.053C512.684 109.389 512.226 111.461 511.311 113.268C510.419 115.074 509.118 116.616 507.408 117.893C505.722 119.145 503.699 120.097 501.338 120.747C498.977 121.397 496.34 121.723 493.425 121.723C490.775 121.723 488.161 121.385 485.584 120.711C483.007 120.012 480.67 118.952 478.574 117.531C476.503 116.11 474.84 114.303 473.588 112.111C472.359 109.895 471.745 107.27 471.745 104.234H483.524C483.524 105.824 483.753 107.173 484.211 108.281C484.669 109.365 485.319 110.244 486.162 110.919C487.029 111.593 488.077 112.075 489.306 112.364C490.534 112.653 491.907 112.798 493.425 112.798C495.183 112.798 496.604 112.557 497.688 112.075C498.797 111.569 499.616 110.883 500.146 110.016C500.675 109.148 500.94 108.185 500.94 107.125Z" fill="white"/>
</svg>
